HIERARCHY
ROOT Hips
{
	OFFSET 0.00 0.00 0.00
	CHANNELS 6 Xposition Yposition Zposition Xrotation Yrotation Zrotation
	JOINT RightUpLeg
	{
		OFFSET -3.76699 0.00000 0.00000
		CHANNELS 3 Xrotation Yrotation Zrotation
		JOINT RightLeg
		{
			OFFSET 0.00000 -18.01768 0.00000
			CHANNELS 3 Xrotation Yrotation Zrotation
			JOINT RightFoot
			{
				OFFSET 0.00000 -16.88108 0.00000
				CHANNELS 3 Xrotation Yrotation Zrotation
				JOINT RightToeBase
				{
					OFFSET 0.00000 -1.49359 5.57418
					CHANNELS 3 Xrotation Yrotation Zrotation
					End Site
					{
						OFFSET 0.00000 0.00000 2.95275
					}
				}
			}
		}
	}
	JOINT LeftUpLeg
	{
		OFFSET 3.76699 0.00000 0.00000
		CHANNELS 3 Xrotation Yrotation Zrotation
		JOINT LeftLeg
		{
			OFFSET 0.00000 -18.01768 0.00000
			CHANNELS 3 Xrotation Yrotation Zrotation
			JOINT LeftFoot
			{
				OFFSET 0.00000 -16.88108 0.00000
				CHANNELS 3 Xrotation Yrotation Zrotation
				JOINT LeftToeBase
				{
					OFFSET 0.00000 -1.49359 5.57418
					CHANNELS 3 Xrotation Yrotation Zrotation
					End Site
					{
						OFFSET 0.00000 0.00000 2.95275
					}
				}
			}
		}
	}
	JOINT Spine
	{
		OFFSET 0.00000 7.77970 0.00000
		CHANNELS 3 Xrotation Yrotation Zrotation
		JOINT RightShoulder
		{
			OFFSET 0.00000 10.94176 0.00000
			CHANNELS 3 Xrotation Yrotation Zrotation
			JOINT RightArm
			{
				OFFSET -7.70894 0.00000 0.00000
				CHANNELS 3 Xrotation Yrotation Zrotation
				JOINT RightForeArm
				{
					OFFSET -11.52135 0.00000 0.00000
					CHANNELS 3 Yrotation Zrotation Xrotation
					JOINT RightHand
					{
						OFFSET -10.17590 0.00000 0.00000
						CHANNELS 3 Xrotation Yrotation Zrotation
						End Site
						{
							OFFSET -3.93700 0.00000 0.00000
						}
						JOINT RightHandThumb1
						{
							OFFSET 0.00000 0.00000 0.00000
							CHANNELS 3 Xrotation Zrotation Yrotation
							End Site
							{
								OFFSET 0.00000 0.00000 3.93700
							}
						}
					}
				}
			}
		}
		JOINT LeftShoulder
		{
			OFFSET 0.00000 10.94176 0.00000
			CHANNELS 3 Xrotation Yrotation Zrotation
			JOINT LeftArm
			{
				OFFSET 7.70894 0.00000 0.00000
				CHANNELS 3 Xrotation Yrotation Zrotation
				JOINT LeftForeArm
				{
					OFFSET 11.52135 0.00000 0.00000
					CHANNELS 3 Yrotation Zrotation Xrotation
					JOINT LeftHand
					{
						OFFSET 10.17590 0.00000 0.00000
						CHANNELS 3 Xrotation Yrotation Zrotation
						End Site
						{
							OFFSET 3.93700 0.00000 0.00000
						}
						JOINT LeftHandThumb1
						{
							OFFSET 0.00000 0.00000 0.00000
							CHANNELS 3 Xrotation Zrotation Yrotation
							End Site
							{
								OFFSET 0.00000 0.00000 3.93700
							}
						}
					}
				}
			}
		}
		JOINT Head
		{
			OFFSET 0.00000 16.64604 0.00000
			CHANNELS 3 Xrotation Yrotation Zrotation
			End Site
			{
				OFFSET 0.00000 4.52755 0.00000
			}
		}
	}
}
MOTION
Frames: 17
Frame Time: 0.008333
 -0.6584 37.2931 -1.5672 -4.3248 -9.7082 1.5396 10.2209 -0.2805 -1.7003 -4.0711 -0.0000 0.0000 -8.3733 -18.4740 7.0877 14.0337 0.0000 0.0000 10.5746 -5.4923 -2.2621 -2.3081 -0.0000 -0.0000 -6.0627 26.2259 -9.6840 10.4273 0.0000 -0.0000 8.5591 -2.2910 -0.5222 14.9667 -6.6857 -19.8770 -21.8250 3.4094 27.3731 57.1712 -0.0000 174.5100 148.6426 -75.9094 -32.1406 32.8623 0.0000 -24.3270 26.1588 25.4975 8.3696 -62.3186 -0.8037 -36.6468 -43.8658 -0.0000 25.7564 -0.5760 22.3450 1.5146 33.1476 -0.0000 26.2537 1.0106 16.5187 0.7804
 -0.6653 37.2926 -1.5784 -4.3512 -9.6287 1.5543 10.2324 -0.2853 -1.6945 -4.0537 -0.0000 -0.0000 -8.4067 -18.5533 7.0451 13.9363 -0.0000 -0.0000 10.5731 -5.4837 -2.2528 -2.2988 -0.0000 0.0000 -6.0393 26.1442 -9.7115 10.4517 0.0000 -0.0000 8.5756 -2.3383 -0.5937 15.3071 -6.7032 -19.6032 -21.6904 3.6848 27.7675 58.4222 -0.0000 174.8030 149.7593 -76.1860 -30.9777 32.8623 0.0000 -24.3270 26.2987 25.4981 8.3443 -62.3805 -0.8159 -37.0547 -44.8818 -0.0000 25.9197 -0.8696 22.5267 2.2689 33.1476 -0.0000 26.2537 1.0424 16.0050 0.7141
 -0.6712 37.2925 -1.5892 -4.3907 -9.5384 1.5517 10.2479 -0.3209 -1.6698 -4.0158 -0.0000 0.0000 -8.4495 -18.5977 6.9809 13.9235 0.0000 -0.0000 10.5866 -5.5207 -2.2306 -2.2956 -0.0000 -0.0000 -6.0238 26.0988 -9.7221 10.4517 -0.0000 0.0000 8.6368 -2.3842 -0.6035 15.7283 -6.8403 -19.3023 -21.6912 4.0820 28.1557 59.7377 -0.0000 174.7865 147.9452 -76.2582 -32.8079 32.8623 0.0000 -24.3270 26.3159 25.4083 8.3099 -62.2160 -0.8657 -37.3515 -45.9245 -0.0000 25.9428 -1.1931 22.5233 3.1119 33.1476 -0.0000 26.2537 1.0417 16.0368 0.7664
 -0.6770 37.2923 -1.6001 -4.4272 -9.4519 1.5344 10.2645 -0.3184 -1.6321 -3.9808 -0.0000 -0.0000 -8.4475 -18.6825 7.0233 13.8821 -0.0000 -0.0000 10.6054 -5.5565 -2.1916 -2.3107 -0.0000 -0.0000 -5.9957 26.0667 -9.7175 10.4495 -0.0000 0.0000 8.7046 -2.4387 -0.5640 16.0292 -6.9326 -19.1271 -21.6292 4.4142 28.7030 60.9809 -0.0000 174.9522 147.9777 -76.3372 -32.7663 32.8623 0.0000 -24.3270 26.4151 25.3432 8.1722 -62.2580 -0.8993 -37.7061 -46.8835 -0.0000 26.1900 -1.5243 22.7222 3.9410 33.1476 -0.0000 26.2537 1.0194 16.4247 0.9138
 -0.6835 37.2915 -1.6105 -4.4716 -9.3621 1.5344 10.2868 -0.3242 -1.6104 -3.9475 -0.0000 0.0000 -8.4831 -18.7729 6.9695 13.7558 -0.0000 0.0000 10.6264 -5.6085 -2.1704 -2.3063 -0.0000 -0.0000 -6.0008 26.0391 -9.7243 10.4408 0.0000 0.0000 8.7789 -2.5034 -0.5754 16.4385 -7.0690 -18.8336 -21.6601 4.8434 29.1870 62.2147 -0.0000 175.0332 147.0946 -76.3179 -33.6620 32.8623 0.0000 -24.3270 26.4339 25.2749 8.1352 -62.0984 -0.9361 -38.0871 -47.8220 -0.0000 26.7803 -2.2106 22.6865 5.7153 33.1476 -0.0000 26.2537 0.9741 16.5188 1.0175
 -0.6923 37.2908 -1.6221 -4.5067 -9.2632 1.5280 10.2997 -0.3513 -1.5776 -3.9149 -0.0000 0.0000 -8.5324 -18.8285 6.9019 13.8135 -0.0000 0.0000 10.6360 -5.6264 -2.1360 -2.3029 0.0000 -0.0000 -5.9653 25.9737 -9.6972 10.3470 -0.0000 -0.0000 8.8407 -2.5934 -0.5841 16.7714 -7.1253 -18.5818 -21.5856 5.2269 29.7287 63.4326 -0.0000 175.1359 147.1404 -76.4275 -33.6035 32.8623 0.0000 -24.3270 26.4493 25.2107 8.1137 -61.9514 -0.9062 -38.4951 -48.8085 -0.0000 27.4653 -2.9691 22.8299 7.6142 33.1476 -0.0000 26.2537 0.9494 16.5349 1.0588
 -0.6980 37.2901 -1.6324 -4.5353 -9.1767 1.5461 10.3003 -0.3648 -1.5696 -3.8695 -0.0000 0.0000 -8.5823 -18.8971 6.7833 13.7326 -0.0000 -0.0000 10.6414 -5.6633 -2.1320 -2.3038 -0.0000 0.0000 -5.9641 25.9220 -9.7481 10.4549 0.0000 -0.0000 8.8915 -2.6742 -0.6204 17.0751 -7.1710 -18.2988 -21.4890 5.6224 30.2787 64.6264 -0.0000 175.2995 146.4463 -76.4638 -34.3011 32.8623 0.0000 -24.3270 26.5396 25.1592 8.0735 -61.8556 -0.8773 -38.9329 -49.7761 -0.0000 28.2387 -4.0282 23.1321 10.1628 33.1476 -0.0000 26.2537 0.9263 16.4543 1.0714
 -0.7053 37.2897 -1.6418 -4.5656 -9.0879 1.5574 10.3146 -0.3705 -1.5552 -3.8430 -0.0000 -0.0000 -8.6155 -18.9836 6.7112 13.6618 -0.0000 -0.0000 10.6506 -5.6561 -2.1200 -2.3050 -0.0000 -0.0000 -5.9296 25.8557 -9.7910 10.4106 0.0000 0.0000 8.9375 -2.7477 -0.6489 17.3137 -7.1529 -18.0384 -21.2727 5.9470 30.8635 65.8665 -0.0000 175.3761 146.2142 -76.5832 -34.5224 32.8623 0.0000 -24.3270 26.6059 25.0684 8.0376 -61.6762 -0.8729 -39.3358 -50.7622 -0.0000 29.1947 -5.2211 23.4907 12.9118 33.1476 -0.0000 26.2537 0.9203 16.3173 1.0600
 -0.7125 37.2896 -1.6507 -4.5960 -8.9939 1.5702 10.3332 -0.3838 -1.5459 -3.8142 -0.0000 0.0000 -8.6659 -19.0519 6.7029 13.6724 0.0000 -0.0000 10.6567 -5.6442 -2.1073 -2.3023 0.0000 0.0000 -5.8975 25.7498 -9.8094 10.3993 -0.0000 0.0000 8.9928 -2.8114 -0.6809 17.6663 -7.2087 -17.7559 -21.1678 6.3300 31.4844 67.0339 -0.0000 175.5471 146.3098 -76.7074 -34.4121 32.8623 0.0000 -24.3270 26.6821 24.9910 7.9882 -61.6036 -0.8732 -39.7701 -51.6464 -0.0000 30.3966 -6.3401 23.5729 15.5269 33.1476 -0.0000 26.2537 0.9089 16.1820 1.0487
 -0.7230 37.2895 -1.6594 -4.6213 -8.8930 1.5742 10.3452 -0.4226 -1.5163 -3.7916 -0.0000 -0.0000 -8.6935 -19.1057 6.6322 13.6534 0.0000 0.0000 10.6591 -5.6442 -2.0769 -2.2981 0.0000 0.0000 -5.8708 25.6582 -9.8310 10.5415 0.0000 0.0000 9.0438 -2.8823 -0.6864 17.8699 -7.1929 -17.5175 -20.8190 6.7104 32.0906 68.2458 -0.0000 175.6582 146.0682 -76.7461 -34.6518 32.8623 0.0000 -24.3270 26.7778 24.9081 7.8760 -61.5357 -0.9837 -40.1704 -52.4130 -0.0000 31.5610 -7.6853 23.7153 18.5478 33.1476 -0.0000 26.2537 0.8929 16.1661 1.0469
 -0.7358 37.2888 -1.6708 -4.6139 -8.7750 1.5795 10.3361 -0.4711 -1.4828 -3.7977 0.0000 -0.0000 -8.6839 -19.1310 6.6007 13.6135 0.0000 -0.0000 10.6265 -5.7141 -2.0395 -2.2954 -0.0000 -0.0000 -5.8541 25.6585 -9.8350 10.6203 0.0000 -0.0000 9.0548 -2.9564 -0.7026 18.2740 -7.2651 -17.1817 -20.6614 7.1832 32.6652 69.4129 -0.0000 175.6767 145.8340 -76.7899 -34.8835 32.8623 0.0000 -24.3270 26.9137 24.8596 7.7823 -61.5876 -1.0597 -40.6513 -53.0729 -0.0000 32.7423 -8.9902 23.7059 21.4804 33.1476 -0.0000 26.2537 0.8738 16.1572 1.0953
 -0.7453 37.2889 -1.6841 -4.6306 -8.6898 1.5860 10.3146 -0.4557 -1.4519 -3.7360 0.0000 0.0000 -8.7507 -19.2422 6.4799 13.5882 0.0000 0.0000 10.6068 -5.7229 -2.0180 -2.2764 -0.0000 -0.0000 -5.8478 25.6144 -9.8996 10.6667 0.0000 0.0000 9.1134 -2.9940 -0.7152 18.7001 -7.3610 -16.8613 -20.6084 7.6549 33.3196 70.5173 -0.0000 175.6887 145.7277 -76.8835 -34.9804 32.8623 0.0000 -24.3270 27.0052 24.7653 7.6817 -61.5645 -1.1798 -41.0520 -53.6623 -0.0000 33.6305 -10.3762 23.5714 24.6023 33.1476 -0.0000 26.2537 0.8211 16.2179 1.1657
 -0.7534 37.2892 -1.6910 -4.7018 -8.5520 1.6024 10.3845 -0.5680 -1.4348 -3.7291 0.0000 -0.0000 -8.7771 -19.2771 6.4335 13.5644 -0.0000 0.0000 10.6460 -5.7977 -2.0105 -2.2542 0.0000 0.0000 -5.8384 25.5522 -9.8879 10.3845 0.0000 0.0000 9.2341 -3.0692 -0.7465 19.1303 -7.4707 -16.5032 -20.5166 8.1805 33.9324 71.5695 -0.0000 175.7373 145.9239 -77.0262 -34.7670 32.8623 0.0000 -24.3270 27.0585 24.6591 7.6408 -61.6449 -1.1750 -41.5388 -54.1521 -0.0000 34.5114 -11.6029 23.3069 27.4268 33.1476 -0.0000 26.2537 0.7551 16.1250 1.1896
 -0.7597 37.2894 -1.7006 -4.7248 -8.4502 1.6249 10.3964 -0.6419 -1.4282 -3.7177 0.0000 -0.0000 -8.8032 -19.3015 6.3610 13.5509 -0.0000 -0.0000 10.6316 -5.7353 -2.0088 -2.2334 -0.0000 -0.0000 -5.8021 25.3900 -9.9367 10.4028 0.0000 -0.0000 9.2958 -3.1111 -0.7669 19.5718 -7.5775 -16.1446 -20.4187 8.7430 34.5455 72.5755 -0.0000 175.7216 145.4917 -77.0623 -35.1992 32.8623 0.0000 -24.3270 27.1200 24.5541 7.5806 -61.7147 -1.1604 -42.0438 -54.6446 -0.0000 35.5477 -12.9989 22.9993 30.5757 33.1476 -0.0000 26.2537 0.7096 16.1443 1.2421
 -0.7679 37.2893 -1.7074 -4.7643 -8.3673 1.6219 10.4313 -0.6681 -1.4021 -3.7082 0.0000 0.0000 -8.8210 -19.3293 6.3369 13.6745 0.0000 -0.0000 10.6475 -5.7300 -1.9836 -2.2185 0.0000 -0.0000 -5.8036 25.3170 -9.9590 10.4623 0.0000 -0.0000 9.3866 -3.1628 -0.7266 19.9409 -7.6704 -15.8794 -20.2692 9.3210 35.2657 73.5271 -0.0000 175.8224 145.1455 -77.1357 -35.5405 32.8623 0.0000 -24.3270 27.1818 24.4351 7.4408 -61.8114 -1.1748 -42.4823 -55.0249 -0.0000 36.8247 -14.0638 22.7116 32.9769 33.1476 -0.0000 26.2537 0.6563 16.6453 1.3953
 -0.7798 37.2896 -1.7182 -4.7842 -8.2327 1.6416 10.4441 -0.7377 -1.3776 -3.6937 0.0000 -0.0000 -8.8462 -19.3871 6.2850 13.5499 0.0000 -0.0000 10.6213 -5.8075 -1.9630 -2.1827 0.0000 0.0000 -5.7858 25.2676 -9.9884 10.3825 0.0000 -0.0000 9.4265 -3.2404 -0.7676 20.2812 -7.6584 -15.5312 -20.0177 9.8496 35.9182 74.3996 -0.0000 175.6917 145.8502 -77.2827 -34.8139 32.8623 0.0000 -24.3270 27.2901 24.3172 7.3823 -62.0161 -1.1219 -42.9530 -55.4269 -0.0000 38.3095 -14.9837 22.3423 35.1481 33.1476 -0.0000 26.2537 0.6545 16.3307 1.3522
 -0.7910 37.2896 -1.7262 -4.8385 -8.1215 1.6538 10.5023 -0.7691 -1.3587 -3.6962 -0.0000 -0.0000 -8.8877 -19.4823 6.2055 13.3733 0.0000 -0.0000 10.5851 -5.6711 -1.9599 -2.0354 0.0000 0.0000 -5.8431 25.0447 -9.9823 10.4372 0.0000 0.0000 9.5416 -3.2969 -0.7606 20.6111 -7.7395 -15.2472 -19.8110 10.4787 36.6633 75.2465 -0.0000 175.7358 146.4002 -77.4750 -34.2388 32.8623 0.0000 -24.3270 27.3406 24.1572 7.2435 -62.2109 -1.1373 -43.3283 -55.7286 -0.0000 39.6092 -15.8915 21.8364 37.4305 33.1476 -0.0000 26.2537 0.5739 16.6886 1.4596
